<mxfile host="app.diagrams.net" agent="Mozilla/5.0 (Macintosh; Intel Mac OS X 10_15_7) AppleWebKit/537.36 (KHTML, like Gecko) Chrome/137.0.0.0 Safari/537.36" version="27.2.0">
  <diagram name="Page-1" id="CRCXl8cYmmoJGAt3QU_9">
    <mxGraphModel dx="1773" dy="1813" grid="1" gridSize="10" guides="1" tooltips="1" connect="1" arrows="1" fold="1" page="1" pageScale="1" pageWidth="827" pageHeight="1169" math="0" shadow="0">
      <root>
        <mxCell id="0" />
        <mxCell id="1" parent="0" />
        <mxCell id="ZGnyx5JYY4QAdNxl_rdN-66" style="edgeStyle=orthogonalEdgeStyle;rounded=0;orthogonalLoop=1;jettySize=auto;html=1;entryX=0;entryY=0.25;entryDx=0;entryDy=0;" edge="1" parent="1" source="ZGnyx5JYY4QAdNxl_rdN-2" target="ZGnyx5JYY4QAdNxl_rdN-16">
          <mxGeometry relative="1" as="geometry" />
        </mxCell>
        <mxCell id="ZGnyx5JYY4QAdNxl_rdN-67" style="edgeStyle=orthogonalEdgeStyle;rounded=0;orthogonalLoop=1;jettySize=auto;html=1;entryX=0.5;entryY=1;entryDx=0;entryDy=0;" edge="1" parent="1" source="ZGnyx5JYY4QAdNxl_rdN-2" target="ZGnyx5JYY4QAdNxl_rdN-17">
          <mxGeometry relative="1" as="geometry" />
        </mxCell>
        <mxCell id="ZGnyx5JYY4QAdNxl_rdN-72" style="edgeStyle=orthogonalEdgeStyle;rounded=0;orthogonalLoop=1;jettySize=auto;html=1;" edge="1" parent="1" source="ZGnyx5JYY4QAdNxl_rdN-2" target="ZGnyx5JYY4QAdNxl_rdN-19">
          <mxGeometry relative="1" as="geometry">
            <Array as="points">
              <mxPoint x="447" y="130" />
              <mxPoint x="-30" y="130" />
            </Array>
          </mxGeometry>
        </mxCell>
        <mxCell id="ZGnyx5JYY4QAdNxl_rdN-73" style="edgeStyle=orthogonalEdgeStyle;rounded=0;orthogonalLoop=1;jettySize=auto;html=1;entryX=1;entryY=0.5;entryDx=0;entryDy=0;" edge="1" parent="1" source="ZGnyx5JYY4QAdNxl_rdN-2" target="ZGnyx5JYY4QAdNxl_rdN-20">
          <mxGeometry relative="1" as="geometry">
            <mxPoint x="150" y="300" as="targetPoint" />
          </mxGeometry>
        </mxCell>
        <mxCell id="ZGnyx5JYY4QAdNxl_rdN-74" style="edgeStyle=orthogonalEdgeStyle;rounded=0;orthogonalLoop=1;jettySize=auto;html=1;entryX=0.5;entryY=0;entryDx=0;entryDy=0;" edge="1" parent="1" source="ZGnyx5JYY4QAdNxl_rdN-2" target="ZGnyx5JYY4QAdNxl_rdN-18">
          <mxGeometry relative="1" as="geometry">
            <Array as="points">
              <mxPoint x="447" y="430" />
              <mxPoint x="-40" y="430" />
            </Array>
          </mxGeometry>
        </mxCell>
        <mxCell id="ZGnyx5JYY4QAdNxl_rdN-88" style="edgeStyle=orthogonalEdgeStyle;rounded=0;orthogonalLoop=1;jettySize=auto;html=1;entryX=0;entryY=0.5;entryDx=0;entryDy=0;" edge="1" parent="1" source="ZGnyx5JYY4QAdNxl_rdN-2" target="ZGnyx5JYY4QAdNxl_rdN-3">
          <mxGeometry relative="1" as="geometry" />
        </mxCell>
        <mxCell id="ZGnyx5JYY4QAdNxl_rdN-2" value="&lt;div&gt;Airbnb Clone - Backend Features&lt;/div&gt;&lt;div&gt;&lt;br&gt;&lt;/div&gt;" style="rounded=1;whiteSpace=wrap;html=1;" vertex="1" parent="1">
          <mxGeometry x="350" y="250" width="194" height="90" as="geometry" />
        </mxCell>
        <mxCell id="ZGnyx5JYY4QAdNxl_rdN-85" style="edgeStyle=orthogonalEdgeStyle;rounded=0;orthogonalLoop=1;jettySize=auto;html=1;" edge="1" parent="1" source="ZGnyx5JYY4QAdNxl_rdN-3" target="ZGnyx5JYY4QAdNxl_rdN-30">
          <mxGeometry relative="1" as="geometry" />
        </mxCell>
        <mxCell id="ZGnyx5JYY4QAdNxl_rdN-86" style="edgeStyle=orthogonalEdgeStyle;rounded=0;orthogonalLoop=1;jettySize=auto;html=1;" edge="1" parent="1" source="ZGnyx5JYY4QAdNxl_rdN-3" target="ZGnyx5JYY4QAdNxl_rdN-23">
          <mxGeometry relative="1" as="geometry" />
        </mxCell>
        <mxCell id="ZGnyx5JYY4QAdNxl_rdN-3" value="Payment Integration" style="rounded=1;whiteSpace=wrap;html=1;" vertex="1" parent="1">
          <mxGeometry x="760" y="30" width="120" height="30" as="geometry" />
        </mxCell>
        <mxCell id="ZGnyx5JYY4QAdNxl_rdN-57" style="edgeStyle=orthogonalEdgeStyle;rounded=0;orthogonalLoop=1;jettySize=auto;html=1;entryX=0.75;entryY=0;entryDx=0;entryDy=0;" edge="1" parent="1" source="ZGnyx5JYY4QAdNxl_rdN-15" target="ZGnyx5JYY4QAdNxl_rdN-44">
          <mxGeometry relative="1" as="geometry" />
        </mxCell>
        <mxCell id="ZGnyx5JYY4QAdNxl_rdN-15" value="Admin Dashboard" style="rounded=1;whiteSpace=wrap;html=1;labelBorderColor=light-dark(#000000,#3333FF);" vertex="1" parent="1">
          <mxGeometry x="360" y="650" width="130" height="30" as="geometry" />
        </mxCell>
        <mxCell id="ZGnyx5JYY4QAdNxl_rdN-60" style="edgeStyle=orthogonalEdgeStyle;rounded=0;orthogonalLoop=1;jettySize=auto;html=1;" edge="1" parent="1" source="ZGnyx5JYY4QAdNxl_rdN-16" target="ZGnyx5JYY4QAdNxl_rdN-38">
          <mxGeometry relative="1" as="geometry" />
        </mxCell>
        <mxCell id="ZGnyx5JYY4QAdNxl_rdN-61" style="edgeStyle=orthogonalEdgeStyle;rounded=0;orthogonalLoop=1;jettySize=auto;html=1;" edge="1" parent="1" source="ZGnyx5JYY4QAdNxl_rdN-16" target="ZGnyx5JYY4QAdNxl_rdN-40">
          <mxGeometry relative="1" as="geometry" />
        </mxCell>
        <mxCell id="ZGnyx5JYY4QAdNxl_rdN-16" value="Notifications System" style="rounded=1;whiteSpace=wrap;html=1;" vertex="1" parent="1">
          <mxGeometry x="880" y="450" width="120" height="30" as="geometry" />
        </mxCell>
        <mxCell id="ZGnyx5JYY4QAdNxl_rdN-70" style="edgeStyle=orthogonalEdgeStyle;rounded=0;orthogonalLoop=1;jettySize=auto;html=1;entryX=0.5;entryY=1;entryDx=0;entryDy=0;" edge="1" parent="1" source="ZGnyx5JYY4QAdNxl_rdN-17" target="ZGnyx5JYY4QAdNxl_rdN-48">
          <mxGeometry relative="1" as="geometry" />
        </mxCell>
        <mxCell id="ZGnyx5JYY4QAdNxl_rdN-71" style="edgeStyle=orthogonalEdgeStyle;rounded=0;orthogonalLoop=1;jettySize=auto;html=1;entryX=0.667;entryY=1;entryDx=0;entryDy=0;entryPerimeter=0;" edge="1" parent="1" source="ZGnyx5JYY4QAdNxl_rdN-17" target="ZGnyx5JYY4QAdNxl_rdN-46">
          <mxGeometry relative="1" as="geometry">
            <mxPoint x="1080" y="230" as="targetPoint" />
          </mxGeometry>
        </mxCell>
        <mxCell id="ZGnyx5JYY4QAdNxl_rdN-17" value="Reviews &amp;amp; Ratings" style="rounded=1;whiteSpace=wrap;html=1;" vertex="1" parent="1">
          <mxGeometry x="890" y="250" width="120" height="30" as="geometry" />
        </mxCell>
        <mxCell id="ZGnyx5JYY4QAdNxl_rdN-76" style="edgeStyle=orthogonalEdgeStyle;rounded=0;orthogonalLoop=1;jettySize=auto;html=1;" edge="1" parent="1" source="ZGnyx5JYY4QAdNxl_rdN-18" target="ZGnyx5JYY4QAdNxl_rdN-36">
          <mxGeometry relative="1" as="geometry" />
        </mxCell>
        <mxCell id="ZGnyx5JYY4QAdNxl_rdN-77" style="edgeStyle=orthogonalEdgeStyle;rounded=0;orthogonalLoop=1;jettySize=auto;html=1;entryX=0.5;entryY=0;entryDx=0;entryDy=0;" edge="1" parent="1" source="ZGnyx5JYY4QAdNxl_rdN-18" target="ZGnyx5JYY4QAdNxl_rdN-37">
          <mxGeometry relative="1" as="geometry" />
        </mxCell>
        <mxCell id="ZGnyx5JYY4QAdNxl_rdN-18" value="&lt;meta charset=&quot;utf-8&quot;&gt;Booking Management" style="rounded=1;whiteSpace=wrap;html=1;" vertex="1" parent="1">
          <mxGeometry x="-100" y="520" width="120" height="30" as="geometry" />
        </mxCell>
        <mxCell id="ZGnyx5JYY4QAdNxl_rdN-81" style="edgeStyle=orthogonalEdgeStyle;rounded=0;orthogonalLoop=1;jettySize=auto;html=1;" edge="1" parent="1" source="ZGnyx5JYY4QAdNxl_rdN-19" target="ZGnyx5JYY4QAdNxl_rdN-22">
          <mxGeometry relative="1" as="geometry" />
        </mxCell>
        <mxCell id="ZGnyx5JYY4QAdNxl_rdN-82" style="edgeStyle=orthogonalEdgeStyle;rounded=0;orthogonalLoop=1;jettySize=auto;html=1;" edge="1" parent="1" source="ZGnyx5JYY4QAdNxl_rdN-19" target="ZGnyx5JYY4QAdNxl_rdN-24">
          <mxGeometry relative="1" as="geometry" />
        </mxCell>
        <mxCell id="ZGnyx5JYY4QAdNxl_rdN-83" style="edgeStyle=orthogonalEdgeStyle;rounded=0;orthogonalLoop=1;jettySize=auto;html=1;" edge="1" parent="1" source="ZGnyx5JYY4QAdNxl_rdN-19" target="ZGnyx5JYY4QAdNxl_rdN-25">
          <mxGeometry relative="1" as="geometry" />
        </mxCell>
        <mxCell id="ZGnyx5JYY4QAdNxl_rdN-19" value="User Management" style="rounded=1;whiteSpace=wrap;html=1;" vertex="1" parent="1">
          <mxGeometry x="-90" y="40" width="120" height="30" as="geometry" />
        </mxCell>
        <mxCell id="ZGnyx5JYY4QAdNxl_rdN-78" style="edgeStyle=orthogonalEdgeStyle;rounded=0;orthogonalLoop=1;jettySize=auto;html=1;entryX=0.5;entryY=1;entryDx=0;entryDy=0;" edge="1" parent="1" source="ZGnyx5JYY4QAdNxl_rdN-20" target="ZGnyx5JYY4QAdNxl_rdN-32">
          <mxGeometry relative="1" as="geometry" />
        </mxCell>
        <mxCell id="ZGnyx5JYY4QAdNxl_rdN-20" value="Property Listings" style="rounded=1;whiteSpace=wrap;html=1;" vertex="1" parent="1">
          <mxGeometry x="-90" y="320" width="120" height="30" as="geometry" />
        </mxCell>
        <mxCell id="ZGnyx5JYY4QAdNxl_rdN-22" value="JWT Authentication" style="rounded=0;whiteSpace=wrap;html=1;" vertex="1" parent="1">
          <mxGeometry x="-170" y="-20" width="120" height="20" as="geometry" />
        </mxCell>
        <mxCell id="ZGnyx5JYY4QAdNxl_rdN-23" value="Handle Guest Payments" style="rounded=0;whiteSpace=wrap;html=1;" vertex="1" parent="1">
          <mxGeometry x="860" y="-30" width="150" height="20" as="geometry" />
        </mxCell>
        <mxCell id="ZGnyx5JYY4QAdNxl_rdN-24" value="Register/Login" style="rounded=0;whiteSpace=wrap;html=1;" vertex="1" parent="1">
          <mxGeometry x="-10" y="-20" width="120" height="20" as="geometry" />
        </mxCell>
        <mxCell id="ZGnyx5JYY4QAdNxl_rdN-25" value="&lt;meta charset=&quot;utf-8&quot;&gt;OAuth (Google, Facebook)" style="rounded=0;whiteSpace=wrap;html=1;" vertex="1" parent="1">
          <mxGeometry x="150" y="-20" width="120" height="20" as="geometry" />
        </mxCell>
        <mxCell id="ZGnyx5JYY4QAdNxl_rdN-26" value="Profile Management" style="rounded=0;whiteSpace=wrap;html=1;" vertex="1" parent="1">
          <mxGeometry x="-370" y="-20" width="120" height="20" as="geometry" />
        </mxCell>
        <mxCell id="ZGnyx5JYY4QAdNxl_rdN-30" value="Handle Guest Payments" style="rounded=0;whiteSpace=wrap;html=1;" vertex="1" parent="1">
          <mxGeometry x="680" y="-30" width="150" height="20" as="geometry" />
        </mxCell>
        <mxCell id="ZGnyx5JYY4QAdNxl_rdN-31" value="Add/Edit/Delete Listings" style="rounded=0;whiteSpace=wrap;html=1;" vertex="1" parent="1">
          <mxGeometry x="-290" y="210" width="150" height="30" as="geometry" />
        </mxCell>
        <mxCell id="ZGnyx5JYY4QAdNxl_rdN-32" value="Set Availability" style="rounded=0;whiteSpace=wrap;html=1;" vertex="1" parent="1">
          <mxGeometry x="-90" y="220" width="120" height="20" as="geometry" />
        </mxCell>
        <mxCell id="ZGnyx5JYY4QAdNxl_rdN-33" value="Upload Images" style="rounded=0;whiteSpace=wrap;html=1;" vertex="1" parent="1">
          <mxGeometry x="60" y="220" width="120" height="20" as="geometry" />
        </mxCell>
        <mxCell id="ZGnyx5JYY4QAdNxl_rdN-35" value="Booking Status: Pending, Confirmed, Canceled" style="rounded=0;whiteSpace=wrap;html=1;" vertex="1" parent="1">
          <mxGeometry y="570" width="220" height="35" as="geometry" />
        </mxCell>
        <mxCell id="ZGnyx5JYY4QAdNxl_rdN-36" value="Cancel Booking" style="rounded=0;whiteSpace=wrap;html=1;" vertex="1" parent="1">
          <mxGeometry x="-170" y="585" width="120" height="20" as="geometry" />
        </mxCell>
        <mxCell id="ZGnyx5JYY4QAdNxl_rdN-37" value="Create Booking" style="rounded=0;whiteSpace=wrap;html=1;" vertex="1" parent="1">
          <mxGeometry x="-310" y="585" width="120" height="20" as="geometry" />
        </mxCell>
        <mxCell id="ZGnyx5JYY4QAdNxl_rdN-38" value="Email Confirmation" style="rounded=0;whiteSpace=wrap;html=1;" vertex="1" parent="1">
          <mxGeometry x="710" y="525" width="120" height="20" as="geometry" />
        </mxCell>
        <mxCell id="ZGnyx5JYY4QAdNxl_rdN-39" value="Payment Alerts" style="rounded=0;whiteSpace=wrap;html=1;" vertex="1" parent="1">
          <mxGeometry x="875" y="525" width="120" height="20" as="geometry" />
        </mxCell>
        <mxCell id="ZGnyx5JYY4QAdNxl_rdN-40" value="Cancellations" style="rounded=0;whiteSpace=wrap;html=1;" vertex="1" parent="1">
          <mxGeometry x="1050" y="530" width="120" height="20" as="geometry" />
        </mxCell>
        <mxCell id="ZGnyx5JYY4QAdNxl_rdN-43" value="Track Payments" style="rounded=0;whiteSpace=wrap;html=1;" vertex="1" parent="1">
          <mxGeometry x="530" y="720" width="120" height="20" as="geometry" />
        </mxCell>
        <mxCell id="ZGnyx5JYY4QAdNxl_rdN-44" value="Manage Users" style="rounded=0;whiteSpace=wrap;html=1;" vertex="1" parent="1">
          <mxGeometry x="230" y="720" width="120" height="20" as="geometry" />
        </mxCell>
        <mxCell id="ZGnyx5JYY4QAdNxl_rdN-45" value="Monitor Listings" style="rounded=0;whiteSpace=wrap;html=1;" vertex="1" parent="1">
          <mxGeometry x="380" y="720" width="120" height="20" as="geometry" />
        </mxCell>
        <mxCell id="ZGnyx5JYY4QAdNxl_rdN-46" value="Link to Bookings" style="rounded=0;whiteSpace=wrap;html=1;" vertex="1" parent="1">
          <mxGeometry x="1000" y="200" width="120" height="20" as="geometry" />
        </mxCell>
        <mxCell id="ZGnyx5JYY4QAdNxl_rdN-47" value="Host Responses" style="rounded=0;whiteSpace=wrap;html=1;" vertex="1" parent="1">
          <mxGeometry x="850" y="200" width="120" height="20" as="geometry" />
        </mxCell>
        <mxCell id="ZGnyx5JYY4QAdNxl_rdN-48" value="Guest Reviews" style="rounded=0;whiteSpace=wrap;html=1;" vertex="1" parent="1">
          <mxGeometry x="710" y="200" width="120" height="20" as="geometry" />
        </mxCell>
        <mxCell id="ZGnyx5JYY4QAdNxl_rdN-49" value="Stripe/PayPal Integration" style="rounded=0;whiteSpace=wrap;html=1;" vertex="1" parent="1">
          <mxGeometry x="490" y="-30" width="160" height="20" as="geometry" />
        </mxCell>
        <mxCell id="ZGnyx5JYY4QAdNxl_rdN-50" value="Multi-Currency Support" style="rounded=0;whiteSpace=wrap;html=1;" vertex="1" parent="1">
          <mxGeometry x="1050" y="-30" width="150" height="20" as="geometry" />
        </mxCell>
        <mxCell id="ZGnyx5JYY4QAdNxl_rdN-53" value="Host Payouts" style="rounded=0;whiteSpace=wrap;html=1;" vertex="1" parent="1">
          <mxGeometry x="370" y="-30" width="100" height="20" as="geometry" />
        </mxCell>
        <mxCell id="ZGnyx5JYY4QAdNxl_rdN-55" style="edgeStyle=orthogonalEdgeStyle;rounded=0;orthogonalLoop=1;jettySize=auto;html=1;entryX=0.642;entryY=0;entryDx=0;entryDy=0;entryPerimeter=0;" edge="1" parent="1" source="ZGnyx5JYY4QAdNxl_rdN-2" target="ZGnyx5JYY4QAdNxl_rdN-15">
          <mxGeometry relative="1" as="geometry" />
        </mxCell>
        <mxCell id="ZGnyx5JYY4QAdNxl_rdN-56" style="edgeStyle=orthogonalEdgeStyle;rounded=0;orthogonalLoop=1;jettySize=auto;html=1;" edge="1" parent="1" source="ZGnyx5JYY4QAdNxl_rdN-15">
          <mxGeometry relative="1" as="geometry">
            <mxPoint x="430" y="720" as="targetPoint" />
          </mxGeometry>
        </mxCell>
        <mxCell id="ZGnyx5JYY4QAdNxl_rdN-58" style="edgeStyle=orthogonalEdgeStyle;rounded=0;orthogonalLoop=1;jettySize=auto;html=1;entryX=0.4;entryY=0.1;entryDx=0;entryDy=0;entryPerimeter=0;" edge="1" parent="1" source="ZGnyx5JYY4QAdNxl_rdN-15" target="ZGnyx5JYY4QAdNxl_rdN-43">
          <mxGeometry relative="1" as="geometry" />
        </mxCell>
        <mxCell id="ZGnyx5JYY4QAdNxl_rdN-59" style="edgeStyle=orthogonalEdgeStyle;rounded=0;orthogonalLoop=1;jettySize=auto;html=1;entryX=0.567;entryY=0.1;entryDx=0;entryDy=0;entryPerimeter=0;" edge="1" parent="1" source="ZGnyx5JYY4QAdNxl_rdN-16" target="ZGnyx5JYY4QAdNxl_rdN-39">
          <mxGeometry relative="1" as="geometry" />
        </mxCell>
        <mxCell id="ZGnyx5JYY4QAdNxl_rdN-69" style="edgeStyle=orthogonalEdgeStyle;rounded=0;orthogonalLoop=1;jettySize=auto;html=1;entryX=0.867;entryY=1.1;entryDx=0;entryDy=0;entryPerimeter=0;" edge="1" parent="1" source="ZGnyx5JYY4QAdNxl_rdN-17" target="ZGnyx5JYY4QAdNxl_rdN-47">
          <mxGeometry relative="1" as="geometry" />
        </mxCell>
        <mxCell id="ZGnyx5JYY4QAdNxl_rdN-75" style="edgeStyle=orthogonalEdgeStyle;rounded=0;orthogonalLoop=1;jettySize=auto;html=1;entryX=0.636;entryY=0.286;entryDx=0;entryDy=0;entryPerimeter=0;" edge="1" parent="1" source="ZGnyx5JYY4QAdNxl_rdN-18" target="ZGnyx5JYY4QAdNxl_rdN-35">
          <mxGeometry relative="1" as="geometry">
            <Array as="points">
              <mxPoint x="-40" y="560" />
              <mxPoint x="40" y="560" />
              <mxPoint x="40" y="550" />
              <mxPoint x="140" y="550" />
            </Array>
          </mxGeometry>
        </mxCell>
        <mxCell id="ZGnyx5JYY4QAdNxl_rdN-79" style="edgeStyle=orthogonalEdgeStyle;rounded=0;orthogonalLoop=1;jettySize=auto;html=1;entryX=0.392;entryY=0.9;entryDx=0;entryDy=0;entryPerimeter=0;" edge="1" parent="1" source="ZGnyx5JYY4QAdNxl_rdN-20" target="ZGnyx5JYY4QAdNxl_rdN-33">
          <mxGeometry relative="1" as="geometry" />
        </mxCell>
        <mxCell id="ZGnyx5JYY4QAdNxl_rdN-80" style="edgeStyle=orthogonalEdgeStyle;rounded=0;orthogonalLoop=1;jettySize=auto;html=1;entryX=0.675;entryY=1.05;entryDx=0;entryDy=0;entryPerimeter=0;" edge="1" parent="1" source="ZGnyx5JYY4QAdNxl_rdN-20" target="ZGnyx5JYY4QAdNxl_rdN-31">
          <mxGeometry relative="1" as="geometry" />
        </mxCell>
        <mxCell id="ZGnyx5JYY4QAdNxl_rdN-84" style="edgeStyle=orthogonalEdgeStyle;rounded=0;orthogonalLoop=1;jettySize=auto;html=1;entryX=0.558;entryY=1.2;entryDx=0;entryDy=0;entryPerimeter=0;" edge="1" parent="1" source="ZGnyx5JYY4QAdNxl_rdN-19" target="ZGnyx5JYY4QAdNxl_rdN-26">
          <mxGeometry relative="1" as="geometry" />
        </mxCell>
        <mxCell id="ZGnyx5JYY4QAdNxl_rdN-87" style="edgeStyle=orthogonalEdgeStyle;rounded=0;orthogonalLoop=1;jettySize=auto;html=1;entryX=0.413;entryY=0.95;entryDx=0;entryDy=0;entryPerimeter=0;" edge="1" parent="1" source="ZGnyx5JYY4QAdNxl_rdN-3" target="ZGnyx5JYY4QAdNxl_rdN-50">
          <mxGeometry relative="1" as="geometry" />
        </mxCell>
        <mxCell id="ZGnyx5JYY4QAdNxl_rdN-89" style="edgeStyle=orthogonalEdgeStyle;rounded=0;orthogonalLoop=1;jettySize=auto;html=1;entryX=0.563;entryY=1.05;entryDx=0;entryDy=0;entryPerimeter=0;" edge="1" parent="1" source="ZGnyx5JYY4QAdNxl_rdN-3" target="ZGnyx5JYY4QAdNxl_rdN-49">
          <mxGeometry relative="1" as="geometry" />
        </mxCell>
        <mxCell id="ZGnyx5JYY4QAdNxl_rdN-90" style="edgeStyle=orthogonalEdgeStyle;rounded=0;orthogonalLoop=1;jettySize=auto;html=1;entryX=0.65;entryY=1.15;entryDx=0;entryDy=0;entryPerimeter=0;" edge="1" parent="1" source="ZGnyx5JYY4QAdNxl_rdN-3" target="ZGnyx5JYY4QAdNxl_rdN-53">
          <mxGeometry relative="1" as="geometry" />
        </mxCell>
      </root>
    </mxGraphModel>
  </diagram>
</mxfile>
